<?xml version="1.0" standalone="no"?><!DOCTYPE svg PUBLIC "-//W3C//DTD SVG 1.1//EN" "http://www.w3.org/Graphics/SVG/1.1/DTD/svg11.dtd"><svg t="1574827063641" class="icon" viewBox="0 0 1024 1024" version="1.1" xmlns="http://www.w3.org/2000/svg" p-id="1355" xmlns:xlink="http://www.w3.org/1999/xlink" width="81" height="81"><defs><style type="text/css"></style></defs><path d="M1011.052 816.11h-183.246c-11.695-81.875-50.685-155.954-113.067-206.64-7.798-15.596-11.695-31.19-11.695-46.785 0-66.281 54.583-120.864 120.864-120.864 66.281 0 120.864 54.583 120.864 120.864 0 42.887-23.394 81.875-58.483 101.37 66.281 23.394 113.067 81.875 124.762 152.057z" fill="#CCCCCC" p-id="1356"></path><path d="M317.059 562.685c0 11.695-3.899 27.291-7.798 38.99-66.281 50.685-113.067 128.662-124.762 214.436h-167.65c7.798-70.179 58.483-128.662 120.864-148.156-35.090-19.494-58.483-58.483-58.483-101.37 0-66.281 54.583-120.864 120.864-120.864 66.281 0 116.965 50.685 116.965 116.965z" fill="#CCCCCC" p-id="1357"></path><path d="M808.313 816.11h-600.422c15.596-113.067 97.471-206.64 202.74-245.627-58.483-35.090-97.471-97.471-97.471-167.65 0-109.168 85.775-194.941 194.941-194.941s194.941 85.775 194.941 194.941c0 70.179-38.99 136.46-97.471 167.65 109.168 38.99 187.146 132.561 202.74 245.627z" fill="#CCCCCC" p-id="1358"></path></svg>