<?xml version="1.0" standalone="no"?><!DOCTYPE svg PUBLIC "-//W3C//DTD SVG 1.1//EN" "http://www.w3.org/Graphics/SVG/1.1/DTD/svg11.dtd"><svg t="1574999638205" class="icon" viewBox="0 0 1109 1024" version="1.1" xmlns="http://www.w3.org/2000/svg" p-id="2425" xmlns:xlink="http://www.w3.org/1999/xlink" width="87.7236328125" height="81"><defs><style type="text/css"></style></defs><path d="M1066.666667 682.666667v170.666666H42.666667v-170.666666h1024m42.666666-42.666667H0v256h1109.333333v-256z" p-id="2426"></path><path d="M981.333333 42.666667v597.333333H128V42.666667h853.333333m42.666667-42.666667H85.333333v682.666667h938.666667V0z" p-id="2427"></path><path d="M938.666667 384a42.666667 42.666667 0 0 1 42.666666 42.666667v213.333333H128v-213.333333a42.666667 42.666667 0 0 1 42.666667-42.666667h768m0-42.666667H170.666667a85.333333 85.333333 0 0 0-85.333334 85.333334v256h938.666667v-256a85.333333 85.333333 0 0 0-85.333333-85.333334z" p-id="2428"></path><path d="M512 256v85.333333H256V256h256m0-42.666667H256a42.666667 42.666667 0 0 0-42.666667 42.666667v128h341.333334V256a42.666667 42.666667 0 0 0-42.666667-42.666667z" p-id="2429"></path><path d="M810.666667 256v85.333333h-256V256h256m0-42.666667h-256a42.666667 42.666667 0 0 0-42.666667 42.666667v128h341.333333V256a42.666667 42.666667 0 0 0-42.666666-42.666667zM128 896H85.333333v128h42.666667v-128zM1024 896h-42.666667v128h42.666667v-128z" p-id="2430"></path></svg>