<?xml version="1.0" standalone="no"?><!DOCTYPE svg PUBLIC "-//W3C//DTD SVG 1.1//EN" "http://www.w3.org/Graphics/SVG/1.1/DTD/svg11.dtd"><svg t="1575257906739" class="icon" viewBox="0 0 1024 1024" version="1.1" xmlns="http://www.w3.org/2000/svg" p-id="3974" xmlns:xlink="http://www.w3.org/1999/xlink" width="81" height="81"><defs><style type="text/css"></style></defs><path d="M260.737 62c-89.263 0-157.827 78.218-157.827 168.382v573.463c0 90.246 67.909 158.154 158.073 158.154h491.809c90 0 168.3-68.237 168.3-158.727v-490.746l-250.527-250.527h-409.827zM260.982 880.182c-45 0-76.254-31.337-76.254-76.337v-573.463c0-44.754 31.663-86.563 76.009-86.563h333.082v168.054c0 46.554 31.827 77.4 77.4 77.4h168.054v414c0 45.327-41.646 76.909-86.482 76.909h-491.809zM716.546 716.546c22.593 0 40.909-18.316 40.909-40.909 0-22.593-18.316-40.909-40.909-40.909h-409.091c-22.593 0-40.909 18.316-40.909 40.909 0 22.593 18.316 40.909 40.909 40.909h409.091zM716.546 552.909c22.593 0 40.909-18.316 40.909-40.909s-18.316-40.909-40.909-40.909h-409.091c-22.593 0-40.909 18.316-40.909 40.909 0 22.593 18.316 40.909 40.909 40.909h409.091zM471.091 389.273c22.593 0 40.909-18.316 40.909-40.909s-18.316-40.909-40.909-40.909h-163.637c-22.593 0-40.909 18.316-40.909 40.909s18.316 40.909 40.909 40.909h163.637z" p-id="3975"></path></svg>