<?xml version="1.0" standalone="no"?><!DOCTYPE svg PUBLIC "-//W3C//DTD SVG 1.1//EN" "http://www.w3.org/Graphics/SVG/1.1/DTD/svg11.dtd"><svg t="1574827109082" class="icon" viewBox="0 0 1024 1024" version="1.1" xmlns="http://www.w3.org/2000/svg" p-id="2182" xmlns:xlink="http://www.w3.org/1999/xlink" width="81" height="81"><defs><style type="text/css"></style></defs><path d="M572.2 693.9v-33.1c91.4-18.8 133-83.2 151.7-153.4 4.9 1.6 10.1 2.5 15.4 2.5 30.9 0 56.4-28.8 56.4-64.2 0-28-16.1-51.8-38.2-60.5 11.9-55.8 17.1-150.8-0.2-214.2 0 0-73.2-89.9-218.4-105.1-145.2-15.6-265 65-270.8 188-2.6 55.9-1.6 101 2.5 131.7-21.5 9.1-37 32.6-37 60.2 0 35.4 25.1 64.2 56.4 64.2 5.3 0 10.5-0.9 15.4-2.5 18.7 70.1 60.2 134.5 151.3 153.4V693c-3.9 0.6-7.7 1.4-11.6 2.1-168.7 17.9-303.4 99.8-340 205.3-9.8 28.3 11.4 57.8 41.4 57.8h735.7c30.1 0 51.2-29.7 41.3-58.1C886 792.4 746.1 709.3 572.2 693.9z" p-id="2183"></path></svg>