<?xml version="1.0" standalone="no"?><!DOCTYPE svg PUBLIC "-//W3C//DTD SVG 1.1//EN" "http://www.w3.org/Graphics/SVG/1.1/DTD/svg11.dtd"><svg t="1574827158207" class="icon" viewBox="0 0 1024 1024" version="1.1" xmlns="http://www.w3.org/2000/svg" p-id="2940" xmlns:xlink="http://www.w3.org/1999/xlink" width="81" height="81"><defs><style type="text/css"></style></defs><path d="M894.7 425.9H761.6c-18.4 0-33.3 14.9-33.3 33.3s14.9 33.3 33.3 33.3h133.1c18.4 0 33.3-14.9 33.3-33.3s-14.9-33.3-33.3-33.3m0-133.1H761.6c-18.4 0-33.3 14.9-33.3 33.3s14.9 33.3 33.3 33.3h133.1c18.4 0 33.3-14.9 33.3-33.3s-14.9-33.3-33.3-33.3m-133.1-66.6h133.1c18.4 0 33.3-14.9 33.3-33.3s-14.9-33.3-33.3-33.3H761.6c-18.4 0-33.3 14.9-33.3 33.3s14.9 33.3 33.3 33.3M775.9 625.6c-5.3-2.4-101.1-44.3-206.7-65.3 12.3-10 23-21.8 32.4-34.6 22.8-31.1 35.1-68.7 35.1-107.3v-109c-0.1-58.2-27.9-112.9-74.8-147.4-31.2-23.2-69.1-35.7-108-35.7-100.8 0-182.8 82.1-182.8 183.1v109c0 58.8 28 111.1 71.1 144.6-100.3 21.7-188.6 60.1-193 62.1-30.4 12.2-53.3 46.4-53.3 79.5v137l1.8 5.2c9.9 29 36.5 48.5 66.3 48.5h596c34.6 0 63.3-25.9 67.6-59.2l0.6-131.5c0-15.8-5.4-32-14.2-45.8-9.5-14.8-22.9-27-38.1-33.2" p-id="2941"></path></svg>